<?xml version="1.0" standalone="no"?><!DOCTYPE svg PUBLIC "-//W3C//DTD SVG 1.1//EN" "http://www.w3.org/Graphics/SVG/1.1/DTD/svg11.dtd"><svg t="1543980427695" class="icon" style="" viewBox="0 0 1039 1024" version="1.1" xmlns="http://www.w3.org/2000/svg" p-id="1380" xmlns:xlink="http://www.w3.org/1999/xlink" width="202.9296875" height="200"><defs><style type="text/css"></style></defs><path d="M750.161959 302.764595v516.821092c0 26.998117-23.141243 50.13936-50.13936 50.13936h-381.830509c-26.998117 0-50.13936-23.141243-50.139359-50.13936v-516.821092h482.109228m77.137476-77.137476h-636.384181v593.958568c0 69.423729 57.853107 127.276836 127.276836 127.276837h381.830509c69.423729 0 127.276836-57.853107 127.276836-127.276837v-593.958568z" fill="#1296db" p-id="1381"></path><path d="M890.937853 302.764595h-763.661017c-21.212806 0-38.568738-17.355932-38.568738-38.568738s17.355932-38.568738 38.568738-38.568738h763.661017c21.212806 0 38.568738 17.355932 38.568738 38.568738s-17.355932 38.568738-38.568738 38.568738zM605.52919 156.20339h-190.915254c-21.212806 0-38.568738-17.355932-38.568738-38.568738s17.355932-38.568738 38.568738-38.568739h190.915254c21.212806 0 38.568738 17.355932 38.568738 38.568739s-17.355932 38.568738-38.568738 38.568738z" fill="#1296db" p-id="1382"></path><path d="M624.813559 815.728814c-21.212806 0-38.568738-17.355932-38.568738-38.568739v-381.830508c0-21.212806 17.355932-38.568738 38.568738-38.568738s38.568738 17.355932 38.568739 38.568738v381.830508c0 21.212806-17.355932 38.568738-38.568739 38.568739zM412.685499 815.728814c-21.212806 0-38.568738-17.355932-38.568738-38.568739v-381.830508c0-21.212806 17.355932-38.568738 38.568738-38.568738s38.568738 17.355932 38.568738 38.568738v381.830508c0 21.212806-17.355932 38.568738-38.568738 38.568739z" fill="#1296db" p-id="1383"></path></svg>