<?xml version="1.0" standalone="no"?><!DOCTYPE svg PUBLIC "-//W3C//DTD SVG 1.1//EN" "http://www.w3.org/Graphics/SVG/1.1/DTD/svg11.dtd"><svg t="1543980478363" class="icon" style="" viewBox="0 0 1024 1024" version="1.1" xmlns="http://www.w3.org/2000/svg" p-id="1862" xmlns:xlink="http://www.w3.org/1999/xlink" width="200" height="200"><defs><style type="text/css"></style></defs><path d="M914.758621 999.724138c-11.034483 0-22.068966-4.413793-30.896552-13.241379 0 0-108.137931-105.931034-183.172414-178.758621-17.655172-17.655172-17.655172-44.137931 0-61.793104 17.655172-17.655172 44.137931-17.655172 61.793104 0 72.827586 72.827586 180.965517 176.551724 180.965517 176.551725 17.655172 17.655172 17.655172 44.137931 2.206896 61.793103-8.827586 11.034483-19.862069 15.448276-30.896551 15.448276z" fill="#1296db" p-id="1863"></path><path d="M482.206897 909.241379c-242.758621 0-441.37931-198.62069-441.379311-441.37931s198.62069-441.37931 441.379311-441.37931 441.37931 198.62069 441.37931 441.37931-198.62069 441.37931-441.37931 441.37931z m0-794.482758c-194.206897 0-353.103448 158.896552-353.103449 353.103448s158.896552 353.103448 353.103449 353.103448 353.103448-158.896552 353.103448-353.103448-158.896552-353.103448-353.103448-353.103448z" fill="#1296db" p-id="1864"></path></svg>